<?xml version="1.0" encoding="utf-8" ?>
<svg baseProfile="full" height="512" version="1.1" width="512" xmlns="http://www.w3.org/2000/svg" xmlns:ev="http://www.w3.org/2001/xml-events" xmlns:xlink="http://www.w3.org/1999/xlink"><defs /><path d="M 363,328 L 362,329 L 357,329 L 356,330 L 353,330 L 352,331 L 350,331 L 349,332 L 347,332 L 346,333 L 345,333 L 344,334 L 342,334 L 341,335 L 340,335 L 339,336 L 338,336 L 337,337 L 336,337 L 334,339 L 333,339 L 330,342 L 329,342 L 320,351 L 320,352 L 317,355 L 317,356 L 316,357 L 316,358 L 314,360 L 314,361 L 313,362 L 313,364 L 312,365 L 312,367 L 311,368 L 311,370 L 310,371 L 310,376 L 309,377 L 309,385 L 310,386 L 310,391 L 311,392 L 311,395 L 312,396 L 312,398 L 313,399 L 313,400 L 314,401 L 314,402 L 315,403 L 315,404 L 316,405 L 316,406 L 318,408 L 318,409 L 323,414 L 323,415 L 324,415 L 326,417 L 326,418 L 325,419 L 325,422 L 324,423 L 324,427 L 323,428 L 323,432 L 322,433 L 322,436 L 321,437 L 321,439 L 320,440 L 320,441 L 321,442 L 321,444 L 322,444 L 324,446 L 329,446 L 330,445 L 331,445 L 333,443 L 334,443 L 335,442 L 336,442 L 337,441 L 338,441 L 339,440 L 340,440 L 342,438 L 343,438 L 345,436 L 346,436 L 347,435 L 348,435 L 349,434 L 350,434 L 352,432 L 353,432 L 354,431 L 357,431 L 358,432 L 381,432 L 382,431 L 385,431 L 386,430 L 390,430 L 391,429 L 393,429 L 394,428 L 396,428 L 397,427 L 398,427 L 399,426 L 401,426 L 402,425 L 403,425 L 404,424 L 405,424 L 407,422 L 408,422 L 410,420 L 411,420 L 413,418 L 414,418 L 423,409 L 423,408 L 426,405 L 426,404 L 427,403 L 427,402 L 428,401 L 428,400 L 429,399 L 429,398 L 430,397 L 430,395 L 431,394 L 431,392 L 432,391 L 432,388 L 433,387 L 433,372 L 432,371 L 432,368 L 431,367 L 431,365 L 430,364 L 430,362 L 429,361 L 429,360 L 428,359 L 428,358 L 427,357 L 427,356 L 425,354 L 425,353 L 423,351 L 423,350 L 414,341 L 413,341 L 411,339 L 410,339 L 408,337 L 407,337 L 406,336 L 405,336 L 404,335 L 403,335 L 402,334 L 400,334 L 399,333 L 398,333 L 397,332 L 395,332 L 394,331 L 392,331 L 391,330 L 388,330 L 387,329 L 381,329 L 380,328 Z" fill="currentColor" stroke="none" /><path d="M 153,218 L 152,219 L 150,219 L 149,220 L 148,220 L 146,222 L 145,222 L 145,223 L 144,224 L 143,224 L 143,225 L 142,226 L 142,227 L 141,228 L 141,229 L 140,230 L 140,239 L 141,240 L 141,241 L 142,242 L 142,243 L 143,244 L 143,245 L 139,249 L 139,250 L 135,254 L 135,255 L 133,257 L 133,258 L 131,260 L 131,261 L 129,263 L 129,264 L 128,265 L 121,265 L 120,266 L 118,266 L 117,267 L 116,267 L 114,269 L 113,269 L 110,272 L 110,273 L 109,274 L 109,275 L 108,276 L 108,286 L 109,287 L 109,289 L 114,294 L 115,294 L 116,295 L 117,295 L 118,296 L 119,296 L 120,297 L 130,297 L 131,296 L 133,296 L 134,295 L 135,295 L 141,289 L 141,288 L 142,287 L 142,285 L 143,284 L 143,279 L 142,278 L 142,275 L 140,273 L 140,271 L 143,268 L 143,267 L 146,264 L 146,263 L 148,261 L 148,260 L 150,258 L 150,257 L 153,254 L 153,253 L 154,252 L 154,251 L 155,250 L 157,250 L 158,251 L 159,250 L 164,250 L 165,249 L 166,249 L 168,247 L 169,247 L 174,242 L 174,240 L 175,239 L 175,235 L 176,234 L 175,233 L 175,229 L 174,228 L 174,227 L 173,226 L 173,225 L 169,221 L 168,221 L 167,220 L 166,220 L 165,219 L 163,219 L 162,218 Z" fill="currentColor" stroke="none" /><path d="M 351,188 L 350,189 L 348,189 L 347,190 L 346,190 L 345,191 L 344,191 L 343,192 L 342,192 L 339,195 L 339,196 L 337,198 L 337,199 L 336,200 L 336,203 L 335,204 L 335,208 L 336,209 L 336,211 L 337,212 L 337,213 L 313,237 L 312,237 L 312,238 L 311,239 L 310,239 L 305,244 L 303,244 L 302,243 L 297,243 L 296,244 L 294,244 L 293,245 L 292,245 L 291,246 L 290,246 L 286,250 L 286,251 L 285,252 L 285,253 L 284,254 L 284,262 L 285,263 L 285,264 L 286,265 L 286,266 L 290,270 L 291,270 L 292,271 L 293,271 L 294,272 L 295,272 L 296,273 L 303,273 L 304,272 L 306,272 L 307,271 L 308,271 L 309,270 L 310,270 L 311,271 L 312,271 L 314,273 L 315,273 L 316,274 L 317,274 L 318,275 L 319,275 L 321,277 L 322,277 L 323,278 L 324,278 L 325,279 L 326,279 L 327,280 L 328,280 L 329,281 L 330,281 L 331,282 L 332,282 L 333,283 L 334,283 L 335,284 L 336,284 L 337,285 L 339,285 L 341,287 L 341,289 L 340,290 L 340,295 L 341,296 L 341,298 L 342,299 L 342,300 L 344,302 L 344,303 L 345,303 L 348,306 L 349,306 L 350,307 L 354,307 L 355,308 L 359,308 L 360,307 L 363,307 L 364,306 L 365,306 L 366,305 L 367,305 L 371,301 L 371,300 L 372,299 L 372,298 L 373,297 L 373,294 L 374,293 L 374,292 L 373,291 L 373,288 L 372,287 L 372,286 L 371,285 L 371,284 L 367,280 L 366,280 L 365,279 L 363,279 L 362,278 L 352,278 L 351,279 L 349,277 L 348,277 L 347,276 L 346,276 L 345,275 L 344,275 L 343,274 L 342,274 L 341,273 L 340,273 L 339,272 L 338,272 L 337,271 L 336,271 L 335,270 L 334,270 L 333,269 L 332,269 L 331,268 L 330,268 L 329,267 L 328,267 L 326,265 L 324,265 L 322,263 L 321,263 L 320,262 L 319,262 L 318,261 L 317,261 L 316,260 L 316,259 L 315,258 L 315,253 L 318,250 L 319,250 L 319,249 L 321,247 L 322,247 L 322,246 L 324,244 L 325,244 L 328,241 L 328,240 L 329,239 L 330,239 L 330,238 L 342,226 L 343,226 L 343,225 L 346,222 L 350,222 L 351,223 L 358,223 L 359,222 L 362,222 L 363,221 L 364,221 L 365,220 L 366,220 L 372,214 L 372,213 L 373,212 L 373,211 L 374,210 L 374,202 L 373,201 L 373,199 L 371,197 L 371,196 L 366,191 L 364,191 L 363,190 L 362,190 L 361,189 L 360,189 L 359,188 Z" fill="currentColor" stroke="none" /><path d="M 152,126 L 151,127 L 149,127 L 147,129 L 146,129 L 141,134 L 141,135 L 140,136 L 140,137 L 139,138 L 139,139 L 138,140 L 138,151 L 139,152 L 139,154 L 140,155 L 140,156 L 142,158 L 142,159 L 147,164 L 148,164 L 149,165 L 150,165 L 151,166 L 152,166 L 153,167 L 165,167 L 168,170 L 169,170 L 173,174 L 174,174 L 176,176 L 177,176 L 180,179 L 181,179 L 185,183 L 186,183 L 190,187 L 191,187 L 194,190 L 195,190 L 197,192 L 197,200 L 198,201 L 198,202 L 199,203 L 199,204 L 203,208 L 204,208 L 206,210 L 208,210 L 209,211 L 213,211 L 214,212 L 216,212 L 217,211 L 220,211 L 221,210 L 222,210 L 223,209 L 224,209 L 225,208 L 226,208 L 230,204 L 230,203 L 231,202 L 231,200 L 232,199 L 232,192 L 231,191 L 231,189 L 230,188 L 230,187 L 228,185 L 228,184 L 227,184 L 225,182 L 224,182 L 223,181 L 222,181 L 221,180 L 219,180 L 218,179 L 211,179 L 210,180 L 208,180 L 206,182 L 204,180 L 204,179 L 203,179 L 196,172 L 195,172 L 185,162 L 184,162 L 182,160 L 182,159 L 181,159 L 179,157 L 180,156 L 297,156 L 298,157 L 297,158 L 297,159 L 294,162 L 294,163 L 292,165 L 292,166 L 286,172 L 286,173 L 282,177 L 282,178 L 276,184 L 276,185 L 271,190 L 271,191 L 266,196 L 266,197 L 260,203 L 260,204 L 256,208 L 256,209 L 246,219 L 246,220 L 235,231 L 235,232 L 226,241 L 226,242 L 218,250 L 218,251 L 209,260 L 209,261 L 200,270 L 200,271 L 190,281 L 190,282 L 184,288 L 184,289 L 178,295 L 178,296 L 172,302 L 172,303 L 166,309 L 166,310 L 163,313 L 163,314 L 158,319 L 158,320 L 146,332 L 146,333 L 144,335 L 144,336 L 143,337 L 143,339 L 142,340 L 142,349 L 143,350 L 143,351 L 146,354 L 147,354 L 148,355 L 151,355 L 152,356 L 301,356 L 301,355 L 302,354 L 302,353 L 303,352 L 303,351 L 305,349 L 305,348 L 307,346 L 307,345 L 317,335 L 317,334 L 197,334 L 196,333 L 194,333 L 193,332 L 192,332 L 189,329 L 189,326 L 188,325 L 189,324 L 189,322 L 190,321 L 190,320 L 204,306 L 204,305 L 210,299 L 210,298 L 211,297 L 212,297 L 212,296 L 216,292 L 216,291 L 221,286 L 221,285 L 224,282 L 224,281 L 229,276 L 229,275 L 235,269 L 235,268 L 241,262 L 241,261 L 242,260 L 243,260 L 243,259 L 250,252 L 250,251 L 260,241 L 260,240 L 271,229 L 271,228 L 279,220 L 279,219 L 280,218 L 281,218 L 282,217 L 282,216 L 289,209 L 289,208 L 295,202 L 295,201 L 305,191 L 305,190 L 311,184 L 311,183 L 316,178 L 316,177 L 318,175 L 319,175 L 319,174 L 329,164 L 329,163 L 330,162 L 331,162 L 333,160 L 333,159 L 334,158 L 335,158 L 335,157 L 338,154 L 338,152 L 339,151 L 339,149 L 340,148 L 340,142 L 339,141 L 339,139 L 338,138 L 338,137 L 337,136 L 336,136 L 335,135 L 334,135 L 333,134 L 175,134 L 170,129 L 169,129 L 167,127 L 165,127 L 164,126 Z" fill="currentColor" stroke="none" /><path d="M 241,38 L 240,39 L 238,39 L 237,40 L 234,40 L 233,41 L 232,41 L 231,42 L 229,42 L 228,43 L 225,43 L 224,44 L 223,44 L 222,45 L 220,45 L 219,46 L 216,46 L 215,47 L 214,47 L 213,48 L 211,48 L 210,49 L 208,49 L 207,50 L 205,50 L 204,51 L 202,51 L 201,52 L 198,52 L 197,53 L 196,53 L 195,54 L 192,54 L 191,55 L 189,55 L 188,56 L 186,56 L 185,57 L 183,57 L 182,58 L 180,58 L 179,59 L 177,59 L 176,60 L 174,60 L 173,61 L 171,61 L 170,62 L 168,62 L 167,63 L 164,63 L 163,64 L 161,64 L 160,65 L 158,65 L 157,66 L 155,66 L 154,67 L 152,67 L 151,68 L 149,68 L 148,69 L 146,69 L 145,70 L 142,70 L 141,71 L 140,71 L 139,72 L 136,72 L 135,73 L 133,73 L 132,74 L 130,74 L 129,75 L 126,75 L 125,76 L 124,76 L 123,77 L 120,77 L 119,78 L 117,78 L 116,79 L 114,79 L 113,80 L 110,80 L 109,81 L 107,81 L 106,82 L 104,82 L 103,83 L 100,83 L 99,84 L 97,84 L 96,85 L 94,85 L 93,86 L 91,86 L 90,87 L 88,87 L 87,88 L 85,88 L 84,89 L 81,89 L 80,90 L 78,90 L 77,91 L 75,91 L 74,92 L 71,92 L 70,93 L 68,93 L 67,94 L 65,94 L 64,95 L 61,95 L 60,96 L 59,96 L 58,97 L 56,97 L 55,98 L 54,98 L 51,101 L 50,101 L 50,102 L 49,103 L 49,106 L 48,107 L 48,163 L 47,164 L 47,278 L 48,279 L 48,294 L 49,295 L 49,301 L 50,302 L 50,306 L 51,307 L 51,311 L 52,312 L 52,315 L 53,316 L 53,318 L 54,319 L 54,322 L 55,323 L 55,325 L 56,326 L 56,328 L 57,329 L 57,331 L 58,332 L 58,334 L 59,335 L 59,336 L 60,337 L 60,338 L 61,339 L 61,341 L 62,342 L 62,343 L 63,344 L 63,345 L 64,346 L 64,348 L 65,349 L 65,350 L 66,351 L 66,352 L 67,353 L 67,354 L 68,355 L 68,356 L 70,358 L 70,359 L 71,360 L 71,361 L 72,362 L 72,363 L 74,365 L 74,366 L 75,367 L 75,368 L 77,370 L 77,371 L 79,373 L 79,374 L 82,377 L 82,378 L 84,380 L 84,381 L 87,384 L 87,385 L 92,390 L 92,391 L 98,397 L 98,398 L 113,413 L 114,413 L 121,420 L 122,420 L 127,425 L 128,425 L 131,428 L 132,428 L 136,432 L 137,432 L 139,434 L 140,434 L 143,437 L 144,437 L 146,439 L 147,439 L 149,441 L 150,441 L 153,444 L 154,444 L 155,445 L 156,445 L 158,447 L 159,447 L 161,449 L 162,449 L 163,450 L 164,450 L 166,452 L 167,452 L 168,453 L 169,453 L 171,455 L 172,455 L 173,456 L 174,456 L 175,457 L 176,457 L 178,459 L 179,459 L 180,460 L 181,460 L 182,461 L 183,461 L 185,463 L 186,463 L 187,464 L 188,464 L 189,465 L 190,465 L 191,466 L 192,466 L 193,467 L 194,467 L 196,469 L 197,469 L 198,470 L 199,470 L 200,471 L 201,471 L 202,472 L 203,472 L 204,473 L 205,473 L 206,474 L 207,474 L 208,475 L 210,475 L 212,477 L 213,477 L 214,478 L 216,478 L 217,479 L 218,479 L 219,480 L 220,480 L 221,481 L 223,481 L 224,482 L 225,482 L 226,483 L 227,483 L 228,484 L 230,484 L 231,485 L 232,485 L 233,486 L 235,486 L 236,487 L 237,487 L 238,488 L 240,488 L 241,489 L 252,489 L 253,488 L 255,488 L 256,487 L 257,487 L 258,486 L 260,486 L 261,485 L 262,485 L 263,484 L 265,484 L 266,483 L 267,483 L 268,482 L 269,482 L 270,481 L 271,481 L 272,480 L 273,480 L 274,479 L 275,479 L 276,478 L 277,478 L 278,477 L 279,477 L 280,476 L 281,476 L 282,475 L 283,475 L 284,474 L 285,474 L 286,473 L 287,473 L 288,472 L 289,472 L 291,470 L 292,470 L 293,469 L 294,469 L 295,468 L 296,468 L 297,467 L 298,467 L 299,466 L 300,466 L 302,464 L 303,464 L 305,462 L 306,462 L 307,461 L 308,461 L 309,460 L 310,460 L 312,458 L 313,458 L 307,452 L 307,451 L 306,450 L 306,449 L 305,448 L 305,437 L 306,436 L 306,432 L 307,431 L 307,428 L 306,429 L 305,429 L 303,431 L 302,431 L 301,432 L 300,432 L 298,434 L 297,434 L 296,435 L 295,435 L 294,436 L 293,436 L 292,437 L 291,437 L 290,438 L 289,438 L 287,440 L 286,440 L 285,441 L 284,441 L 283,442 L 282,442 L 281,443 L 280,443 L 279,444 L 278,444 L 277,445 L 276,445 L 274,447 L 272,447 L 270,449 L 269,449 L 268,450 L 267,450 L 266,451 L 265,451 L 264,452 L 262,452 L 261,453 L 260,453 L 258,455 L 256,455 L 255,456 L 254,456 L 253,457 L 252,457 L 251,458 L 250,458 L 249,459 L 248,459 L 247,460 L 245,460 L 244,459 L 243,459 L 242,458 L 240,458 L 239,457 L 238,457 L 237,456 L 236,456 L 235,455 L 234,455 L 233,454 L 232,454 L 231,453 L 229,453 L 228,452 L 227,452 L 226,451 L 225,451 L 224,450 L 223,450 L 222,449 L 221,449 L 220,448 L 219,448 L 218,447 L 217,447 L 216,446 L 215,446 L 214,445 L 213,445 L 212,444 L 211,444 L 210,443 L 209,443 L 208,442 L 207,442 L 206,441 L 205,441 L 204,440 L 203,440 L 202,439 L 201,439 L 199,437 L 198,437 L 197,436 L 196,436 L 195,435 L 194,435 L 192,433 L 191,433 L 190,432 L 189,432 L 187,430 L 186,430 L 185,429 L 184,429 L 182,427 L 181,427 L 180,426 L 179,426 L 177,424 L 176,424 L 175,423 L 174,423 L 172,421 L 171,421 L 168,418 L 167,418 L 165,416 L 164,416 L 161,413 L 160,413 L 158,411 L 157,411 L 154,408 L 153,408 L 150,405 L 149,405 L 144,400 L 143,400 L 137,394 L 136,394 L 119,377 L 119,376 L 113,370 L 113,369 L 109,365 L 109,364 L 106,361 L 106,360 L 104,358 L 104,357 L 101,354 L 101,353 L 100,352 L 100,351 L 99,350 L 99,349 L 97,347 L 97,346 L 95,344 L 95,342 L 94,341 L 94,340 L 92,338 L 92,337 L 91,336 L 91,334 L 90,333 L 90,332 L 89,331 L 89,329 L 88,328 L 88,327 L 87,326 L 87,325 L 86,324 L 86,321 L 85,320 L 85,318 L 84,317 L 84,315 L 83,314 L 83,312 L 82,311 L 82,308 L 81,307 L 81,305 L 80,304 L 80,298 L 79,297 L 79,291 L 78,290 L 78,280 L 77,279 L 77,165 L 78,164 L 78,121 L 79,120 L 81,120 L 82,119 L 84,119 L 85,118 L 88,118 L 89,117 L 91,117 L 92,116 L 94,116 L 95,115 L 97,115 L 98,114 L 100,114 L 101,113 L 103,113 L 104,112 L 107,112 L 108,111 L 110,111 L 111,110 L 113,110 L 114,109 L 116,109 L 117,108 L 119,108 L 120,107 L 123,107 L 124,106 L 126,106 L 127,105 L 129,105 L 130,104 L 132,104 L 133,103 L 136,103 L 137,102 L 138,102 L 139,101 L 141,101 L 142,100 L 145,100 L 146,99 L 148,99 L 149,98 L 151,98 L 152,97 L 154,97 L 155,96 L 157,96 L 158,95 L 161,95 L 162,94 L 164,94 L 165,93 L 167,93 L 168,92 L 170,92 L 171,91 L 174,91 L 175,90 L 176,90 L 177,89 L 180,89 L 181,88 L 183,88 L 184,87 L 186,87 L 187,86 L 189,86 L 190,85 L 192,85 L 193,84 L 195,84 L 196,83 L 199,83 L 200,82 L 202,82 L 203,81 L 205,81 L 206,80 L 208,80 L 209,79 L 211,79 L 212,78 L 214,78 L 215,77 L 217,77 L 218,76 L 220,76 L 221,75 L 223,75 L 224,74 L 226,74 L 227,73 L 229,73 L 230,72 L 233,72 L 234,71 L 235,71 L 236,70 L 238,70 L 239,69 L 242,69 L 243,68 L 249,68 L 250,69 L 252,69 L 253,70 L 255,70 L 256,71 L 258,71 L 259,72 L 261,72 L 262,73 L 264,73 L 265,74 L 267,74 L 268,75 L 271,75 L 272,76 L 273,76 L 274,77 L 276,77 L 277,78 L 280,78 L 281,79 L 283,79 L 284,80 L 285,80 L 286,81 L 289,81 L 290,82 L 292,82 L 293,83 L 295,83 L 296,84 L 298,84 L 299,85 L 301,85 L 302,86 L 304,86 L 305,87 L 308,87 L 309,88 L 311,88 L 312,89 L 314,89 L 315,90 L 317,90 L 318,91 L 320,91 L 321,92 L 323,92 L 324,93 L 326,93 L 327,94 L 329,94 L 330,95 L 333,95 L 334,96 L 336,96 L 337,97 L 339,97 L 340,98 L 342,98 L 343,99 L 345,99 L 346,100 L 349,100 L 350,101 L 352,101 L 353,102 L 354,102 L 355,103 L 358,103 L 359,104 L 361,104 L 362,105 L 364,105 L 365,106 L 367,106 L 368,107 L 371,107 L 372,108 L 373,108 L 374,109 L 377,109 L 378,110 L 380,110 L 381,111 L 383,111 L 384,112 L 387,112 L 388,113 L 389,113 L 390,114 L 392,114 L 393,115 L 396,115 L 397,116 L 399,116 L 400,117 L 402,117 L 403,118 L 405,118 L 406,119 L 408,119 L 409,120 L 412,120 L 414,122 L 414,167 L 415,168 L 415,281 L 414,282 L 414,289 L 413,290 L 413,297 L 412,298 L 412,304 L 411,305 L 411,308 L 410,309 L 410,311 L 409,312 L 409,315 L 408,316 L 408,318 L 407,319 L 407,322 L 409,322 L 410,323 L 411,323 L 413,325 L 414,325 L 415,326 L 416,326 L 418,328 L 419,328 L 422,331 L 423,331 L 430,338 L 431,338 L 431,336 L 432,335 L 432,334 L 433,333 L 433,332 L 434,331 L 434,329 L 435,328 L 435,326 L 436,325 L 436,323 L 437,322 L 437,320 L 438,319 L 438,316 L 439,315 L 439,313 L 440,312 L 440,308 L 441,307 L 441,304 L 442,303 L 442,298 L 443,297 L 443,291 L 444,290 L 444,273 L 445,272 L 445,161 L 444,160 L 444,106 L 443,105 L 443,104 L 442,103 L 442,102 L 438,98 L 437,98 L 436,97 L 434,97 L 433,96 L 431,96 L 430,95 L 428,95 L 427,94 L 425,94 L 424,93 L 422,93 L 421,92 L 418,92 L 417,91 L 415,91 L 414,90 L 412,90 L 411,89 L 408,89 L 407,88 L 405,88 L 404,87 L 402,87 L 401,86 L 399,86 L 398,85 L 396,85 L 395,84 L 393,84 L 392,83 L 389,83 L 388,82 L 386,82 L 385,81 L 383,81 L 382,80 L 379,80 L 378,79 L 376,79 L 375,78 L 373,78 L 372,77 L 369,77 L 368,76 L 366,76 L 365,75 L 363,75 L 362,74 L 360,74 L 359,73 L 357,73 L 356,72 L 353,72 L 352,71 L 350,71 L 349,70 L 347,70 L 346,69 L 343,69 L 342,68 L 341,68 L 340,67 L 338,67 L 337,66 L 334,66 L 333,65 L 331,65 L 330,64 L 328,64 L 327,63 L 324,63 L 323,62 L 322,62 L 321,61 L 319,61 L 318,60 L 315,60 L 314,59 L 312,59 L 311,58 L 309,58 L 308,57 L 306,57 L 305,56 L 303,56 L 302,55 L 299,55 L 298,54 L 296,54 L 295,53 L 293,53 L 292,52 L 290,52 L 289,51 L 287,51 L 286,50 L 284,50 L 283,49 L 281,49 L 280,48 L 278,48 L 277,47 L 275,47 L 274,46 L 271,46 L 270,45 L 269,45 L 268,44 L 266,44 L 265,43 L 262,43 L 261,42 L 259,42 L 258,41 L 256,41 L 255,40 L 253,40 L 252,39 L 250,39 L 249,38 Z" fill="currentColor" stroke="none" /></svg>